<svg xmlns="http://www.w3.org/2000/svg" viewBox="0 0 500 300">
  <defs>
    <linearGradient id="bg-gradient" x1="0%" y1="0%" x2="100%" y2="100%">
      <stop offset="0%" stop-color="#0a0e17" />
      <stop offset="50%" stop-color="#111827" />
      <stop offset="100%" stop-color="#141b2d" />
    </linearGradient>
    <filter id="quantum-glow" x="-50%" y="-50%" width="200%" height="200%">
      <feGaussianBlur stdDeviation="3" result="blur" />
      <feComposite in="SourceGraphic" in2="blur" operator="over" />
    </filter>
    <filter id="text-shadow" x="-10%" y="-10%" width="120%" height="120%">
      <feDropShadow dx="0" dy="0" stdDeviation="0.5" flood-opacity="0.2" flood-color="#000000"/>
    </filter>
    <pattern id="noise-pattern" width="100" height="100" patternUnits="userSpaceOnUse">
      <rect width="100" height="100" fill="#000000" opacity="0.02"/>
      <filter id="noise" x="0%" y="0%" width="100%" height="100%">
        <feTurbulence type="fractalNoise" baseFrequency="0.65" numOctaves="3" stitchTiles="stitch" result="noise"/>
        <feColorMatrix type="matrix" values="1 0 0 0 0 0 1 0 0 0 0 0 1 0 0 0 0 0 0.03 0" in="noise" result="coloredNoise"/>
      </filter>
      <rect width="100" height="100" filter="url(#noise)"/>
    </pattern>
    <linearGradient id="code-gradient" x1="0%" y1="0%" x2="100%" y2="100%">
      <stop offset="0%" stop-color="#4dabf7" />
      <stop offset="100%" stop-color="#339af0" />
    </linearGradient>
    <linearGradient id="quantum-gradient" x1="0%" y1="0%" x2="100%" y2="100%">
      <stop offset="0%" stop-color="#9775fa" />
      <stop offset="100%" stop-color="#845ef7" />
    </linearGradient>
  </defs>

  <rect width="500" height="300" rx="10" ry="10" fill="url(#bg-gradient)" />
  <rect width="500" height="300" rx="10" ry="10" fill="url(#noise-pattern)" />
  
  <g opacity="0.05">
    <path d="M30,30 L60,30 C70,30 70,40 70,50 L70,70 L100,70" stroke="#a5d8ff" stroke-width="0.7" fill="none" />
    <path d="M470,30 L440,30 C430,30 430,40 430,50 L430,70 L400,70" stroke="#a5d8ff" stroke-width="0.7" fill="none" />
    <path d="M30,270 L60,270 C70,270 70,260 70,250 L70,230 L100,230" stroke="#a5d8ff" stroke-width="0.7" fill="none" />
    <path d="M470,270 L440,270 C430,270 430,260 430,250 L430,230 L400,230" stroke="#a5d8ff" stroke-width="0.7" fill="none" />
    <text x="40" y="120" font-family="monospace" font-size="8" fill="#a5d8ff">10110</text>
    <text x="440" y="240" font-family="monospace" font-size="8" fill="#a5d8ff">01001</text>
    <circle cx="30" cy="30" r="1.5" fill="#a5d8ff" />
    <circle cx="100" cy="70" r="1.5" fill="#a5d8ff" />
    <circle cx="470" cy="30" r="1.5" fill="#a5d8ff" />
    <circle cx="400" cy="70" r="1.5" fill="#a5d8ff" />
    <circle cx="30" cy="270" r="1.5" fill="#a5d8ff" />
    <circle cx="100" cy="230" r="1.5" fill="#a5d8ff" />
    <circle cx="470" cy="270" r="1.5" fill="#a5d8ff" />
    <circle cx="400" cy="230" r="1.5" fill="#a5d8ff" />
  </g>

  <!-- Main Content: Logo at top, text below -->
  <g transform="translate(250, 100)">
    <!-- Logo -->
    <g>
      <path d="M-40,-40 L-65,0 L-40,40" stroke="url(#code-gradient)" stroke-width="4" fill="none" stroke-linecap="round" stroke-linejoin="round">
        <animate attributeName="opacity" values="1;0.8;1" dur="6s" repeatCount="indefinite" />
      </path>
      <path d="M40,-40 L65,0 L40,40" stroke="url(#code-gradient)" stroke-width="4" fill="none" stroke-linecap="round" stroke-linejoin="round">
        <animate attributeName="opacity" values="1;0.8;1" dur="6s" repeatCount="indefinite" />
      </path>
      <circle cx="0" cy="0" r="25" fill="url(#quantum-gradient)" filter="url(#quantum-glow)" opacity="0.9">
        <animate attributeName="opacity" values="0.9;0.7;0.9" dur="5s" repeatCount="indefinite" />
      </circle>
      <circle cx="0" cy="0" r="18" fill="#141b2d" />
      <path d="M10,10 L22,22" stroke="url(#quantum-gradient)" stroke-width="3" stroke-linecap="round">
        <animate attributeName="opacity" values="1;0.7;1" dur="4s" repeatCount="indefinite" />
      </path>
      <ellipse cx="0" cy="0" rx="45" ry="18" fill="none" stroke="#5c7cfa" stroke-width="1.5" opacity="0.7" transform="rotate(25)">
        <animate attributeName="rx" values="45;48;45" dur="6s" repeatCount="indefinite" />
        <animate attributeName="opacity" values="0.7;0.5;0.7" dur="7s" repeatCount="indefinite" />
      </ellipse>
      <ellipse cx="0" cy="0" rx="35" ry="25" fill="none" stroke="#748ffc" stroke-width="1.5" opacity="0.5" transform="rotate(-20)">
        <animate attributeName="rx" values="35;38;35" dur="7s" repeatCount="indefinite" />
        <animate attributeName="opacity" values="0.5;0.3;0.5" dur="8s" repeatCount="indefinite" />
      </ellipse>
    </g>
  </g>

  <!-- CodeQuantum.io Text -->
  <g transform="translate(250, 180)">
    <text font-family="'Lato', 'Segoe UI', 'Roboto', sans-serif" font-size="38" font-weight="200" letter-spacing="0.5" text-anchor="middle">
      <tspan x="0" y="0" fill="#ffffff">Code</tspan><tspan fill="url(#quantum-gradient)">Quantum</tspan>
      <tspan x="129" y="0" font-size="20" fill="#d0d7de" font-weight="200">.io</tspan>
    </text>
  </g>

  <!-- Developer Info -->
  <g transform="translate(250, 230)">
    <text x="0" y="0" font-family="'Lato', 'Segoe UI', 'Roboto', sans-serif" font-size="16" font-weight="200" letter-spacing="0.3" text-anchor="middle" fill="#f1f3f5">Antonin Nvh</text>
    <text x="0" y="25" font-family="'Lato', 'Segoe UI', 'Roboto', sans-serif" font-size="14" font-weight="200" letter-spacing="0.6" text-anchor="middle" fill="#d0d7de">Senior Full-stack Developer</text>
  </g>
</svg>
